<svg width="35" height="35" viewBox="0 0 35 35" fill="none" xmlns="http://www.w3.org/2000/svg">
<path d="M17.5 27.3438C16.9021 27.3438 16.4062 26.8479 16.4062 26.25V21.875C16.4062 21.2771 16.9021 20.7812 17.5 20.7812C18.0979 20.7812 18.5938 21.2771 18.5938 21.875V26.25C18.5938 26.8479 18.0979 27.3438 17.5 27.3438Z" fill="white"/>
<path d="M25.6667 32.9H9.3334C6.67923 32.9 4.2584 30.8584 3.8209 28.2479L1.88131 16.625C1.56048 14.8167 2.45006 12.4979 3.89381 11.3459L14.0001 3.25211C15.9542 1.67711 19.0313 1.69169 21.0001 3.26669L31.1063 11.3459C32.5355 12.4979 33.4105 14.8167 33.1188 16.625L31.1792 28.2334C30.7417 30.8146 28.2626 32.9 25.6667 32.9ZM17.4855 4.27294C16.7126 4.27294 15.9396 4.50628 15.3709 4.95836L5.26465 13.0667C4.44798 13.7229 3.86465 15.2396 4.03965 16.275L5.97923 27.8834C6.24173 29.4146 7.77298 30.7125 9.3334 30.7125H25.6667C27.2271 30.7125 28.7584 29.4146 29.0209 27.8688L30.9605 16.2604C31.1209 15.2396 30.5376 13.6938 29.7355 13.0521L19.6292 4.97294C19.0459 4.50628 18.2584 4.27294 17.4855 4.27294Z" fill="white"/>
</svg>
